<svg width="41" height="41" viewBox="0 0 41 41" fill="none" xmlns="http://www.w3.org/2000/svg">
<g id="facebook logo" clip-path="url(#clip0_102_148)">
<g id="Group">
<path id="Vector" d="M40.0781 20.5C40.0781 9.4543 31.1238 0.5 20.0781 0.5C9.03242 0.5 0.078125 9.4543 0.078125 20.5C0.078125 30.4826 7.39184 38.7566 16.9531 40.257V26.2812H11.875V20.5H16.9531V16.0937C16.9531 11.0812 19.939 8.3125 24.5074 8.3125C26.6956 8.3125 28.9844 8.70312 28.9844 8.70312V13.625H26.4624C23.9779 13.625 23.2031 15.1667 23.2031 16.7483V20.5H28.75L27.8633 26.2812H23.2031V40.257C32.7644 38.7566 40.0781 30.4826 40.0781 20.5Z" fill="white"/>
</g>
</g>
<defs>
<clipPath id="clip0_102_148">
<rect width="40" height="40" fill="white" transform="translate(0.078125 0.5)"/>
</clipPath>
</defs>
</svg>
