<svg width="41" height="41" viewBox="0 0 41 41" fill="none" xmlns="http://www.w3.org/2000/svg">
<g id="instagram-icon logo" clip-path="url(#clip0_102_139)">
<g id="Group">
<path id="Vector" d="M20.0783 4.10368C14.738 4.10368 14.1055 4.124 11.9966 4.22022C10.0466 4.30922 8.98764 4.63503 8.28282 4.90885C7.34935 5.27166 6.68303 5.70513 5.9832 6.40496C5.28338 7.10478 4.84991 7.7711 4.48718 8.70457C4.21328 9.4094 3.88747 10.4684 3.79847 12.4183C3.70225 14.5273 3.68192 15.1598 3.68192 20.5C3.68192 25.8403 3.70225 26.4728 3.79847 28.5817C3.88747 30.5317 4.21328 31.5907 4.48718 32.2955C4.84991 33.229 5.28338 33.8953 5.9832 34.5951C6.68303 35.2949 7.34935 35.7284 8.28282 36.0911C8.98764 36.365 10.0466 36.6909 11.9966 36.7799C14.1052 36.8761 14.7377 36.8964 20.0783 36.8964C25.4189 36.8964 26.0514 36.8761 28.16 36.7799C30.1099 36.6909 31.1689 36.365 31.8737 36.0911C32.8072 35.7284 33.4735 35.2949 34.1734 34.5951C34.8732 33.8953 35.3067 33.229 35.6694 32.2955C35.9433 31.5907 36.2691 30.5317 36.3581 28.5818C36.4543 26.4728 36.4746 25.8403 36.4746 20.5C36.4746 15.1598 36.4543 14.5273 36.3581 12.4184C36.2691 10.4684 35.9433 9.4094 35.6694 8.70457C35.3067 7.7711 34.8732 7.10478 34.1734 6.40496C33.4735 5.70513 32.8072 5.27166 31.8737 4.90885C31.1689 4.63503 30.1099 4.30922 28.16 4.22022C26.051 4.124 25.4185 4.10368 20.0783 4.10368ZM20.0783 0.5C25.51 0.5 26.191 0.523023 28.3242 0.620355C30.4531 0.717529 31.9069 1.05557 33.1791 1.55001C34.4943 2.06113 35.6096 2.74499 36.7215 3.85685C37.8333 4.96871 38.5172 6.08406 39.0283 7.39924C39.5228 8.67147 39.8608 10.1253 39.958 12.2541C40.0553 14.3872 40.0782 15.0683 40.0782 20.5C40.0782 25.9318 40.0553 26.6128 39.958 28.746C39.8608 30.8748 39.5228 32.3286 39.0283 33.6008C38.5172 34.9159 37.8333 36.0314 36.7215 37.1432C35.6096 38.2551 34.4943 38.939 33.1791 39.4501C31.9069 39.9445 30.4531 40.2826 28.3242 40.3797C26.191 40.4771 25.51 40.5 20.0783 40.5C14.6466 40.5 13.9655 40.4771 11.8324 40.3797C9.70351 40.2826 8.24971 39.9445 6.97749 39.4501C5.66231 38.939 4.54696 38.2551 3.4351 37.1432C2.32324 36.0314 1.63937 34.916 1.12826 33.6008C0.63382 32.3286 0.295776 30.8748 0.198605 28.746C0.101273 26.6128 0.0782471 25.9318 0.0782471 20.5C0.0782471 15.0683 0.101273 14.3872 0.198605 12.2541C0.295776 10.1253 0.63382 8.67147 1.12826 7.39924C1.63937 6.08406 2.32324 4.96871 3.4351 3.85685C4.54696 2.74499 5.66231 2.06113 6.97749 1.55001C8.24971 1.05557 9.70351 0.717529 11.8324 0.620355C13.9655 0.523023 14.6466 0.5 20.0783 0.5ZM20.0783 10.2297C25.7504 10.2297 30.3486 14.8279 30.3486 20.5C30.3486 26.1721 25.7504 30.7703 20.0783 30.7703C14.4062 30.7703 9.80798 26.1721 9.80798 20.5C9.80798 14.8279 14.4062 10.2297 20.0783 10.2297ZM20.0783 27.1667C23.7602 27.1667 26.745 24.1819 26.745 20.5C26.745 16.8182 23.7602 13.8333 20.0783 13.8333C16.3964 13.8333 13.4116 16.8182 13.4116 20.5C13.4116 24.1819 16.3964 27.1667 20.0783 27.1667ZM7.00226 9.82397C7.00226 11.1495 8.07673 12.224 9.40222 12.224C10.7277 12.224 11.8023 11.1495 11.8023 9.82397C11.8023 8.49848 10.7277 7.42401 9.40222 7.42401C8.07673 7.42401 7.00226 8.49848 7.00226 9.82397Z" fill="white"/>
</g>
</g>
<defs>
<clipPath id="clip0_102_139">
<rect width="40" height="40" fill="white" transform="matrix(-1 0 0 1 40.0782 0.5)"/>
</clipPath>
</defs>
</svg>
