<svg width="41" height="41" viewBox="0 0 41 41" fill="none" xmlns="http://www.w3.org/2000/svg">
<path id="Vector" d="M39.8292 31.7218C38.2985 30.1909 34.6227 27.8895 32.8109 27.0252C30.7074 26.015 29.9369 26.0359 28.4478 27.1085C27.2087 28.0041 26.4069 28.8372 24.9803 28.5247C23.5538 28.2227 20.7423 26.0879 18.0141 23.3699C15.2859 20.6415 13.1617 17.8298 12.8597 16.4031C12.5577 14.966 13.3907 14.1746 14.2758 12.9354C15.3484 11.4462 15.3796 10.6756 14.3591 8.572C13.4949 6.74959 11.204 3.08395 9.66292 1.55313C8.13222 0.0223086 7.78859 0.355549 6.94515 0.657548C6.94515 0.657548 5.69559 1.15741 4.45646 1.98009C2.92576 3.00064 2.0719 3.85457 1.46795 5.13546C0.874409 6.41635 0.187157 8.8011 3.6859 15.0285C6.5078 20.0584 9.27764 23.8698 13.3907 27.9728L13.4012 27.9832L13.4116 27.9936C17.5247 32.1071 21.3254 34.8771 26.3548 37.6993C32.5818 41.1983 34.9663 40.511 36.2471 39.9174C37.5279 39.3238 38.3818 38.4699 39.4022 36.9286C40.2249 35.6894 40.7247 34.4398 40.7247 34.4398C41.0267 33.5962 41.3703 33.2526 39.8292 31.7218Z" fill="white"/>
</svg>
